<mxfile host="app.diagrams.net" modified="2024-04-20T07:16:12.993Z" agent="Mozilla/5.0 (Windows NT 10.0; Win64; x64) AppleWebKit/537.36 (KHTML, like Gecko) Chrome/123.0.0.0 Safari/537.36 Edg/123.0.0.0" version="22.1.18" etag="kqJB2W1h2J4Nn6OhZPYU" type="github">
  <diagram name="Page-1" id="aXnK0Jry2XC0mHybiPtB">
    <mxGraphModel>
      <root>
        <mxCell id="0" />
        <mxCell id="1" parent="0" />
      </root>
    </mxGraphModel>
  </diagram>
</mxfile>
